REM DIRINDEX 1\4,1\2\5,1\2\6,1\2\7,1\3\8,1\3\9,1\3\10,1\3\11
REM DIRNAME folder01,folder02,folder03,folder04,folder05,folder06,folder07,folder08,folder09,folder10,folder11
TITLE ""
FILE "t_k_457-467.mp3" MP3
  TRACK 01 AUDIO
    TITLE "4:cjc108_1374"
    INDEX 01 00:00:00
  TRACK 02 AUDIO
    TITLE "0:"
    INDEX 01 00:02:63
  TRACK 03 AUDIO
    TITLE "5:cjc108_1375"
    INDEX 01 00:04:11
  TRACK 04 AUDIO
    TITLE "0:"
    INDEX 01 00:05:22
  TRACK 05 AUDIO
    TITLE "6:cjc108_1376"
    INDEX 01 00:05:38
  TRACK 06 AUDIO
    TITLE "0:"
    INDEX 01 00:06:49
  TRACK 07 AUDIO
    TITLE "7:cjc108_1377"
    INDEX 01 00:06:67
  TRACK 08 AUDIO
    TITLE "0:"
    INDEX 01 00:14:07
  TRACK 09 AUDIO
    TITLE "5:cjc108_1378"
    INDEX 01 00:14:60
  TRACK 10 AUDIO
    TITLE "0:"
    INDEX 01 00:15:64
  TRACK 11 AUDIO
    TITLE "6:cjc108_1379"
    INDEX 01 00:16:08
  TRACK 12 AUDIO
    TITLE "0:"
    INDEX 01 00:20:45
  TRACK 13 AUDIO
    TITLE "7:cjc108_1380"
    INDEX 01 00:20:61
  TRACK 14 AUDIO
    TITLE "0:"
    INDEX 01 00:25:74
  TRACK 15 AUDIO
    TITLE "5:cjc108_1381"
    INDEX 01 00:26:62
  TRACK 16 AUDIO
    TITLE "0:"
    INDEX 01 00:27:73
  TRACK 17 AUDIO
    TITLE "6:cjc108_1382"
    INDEX 01 00:28:27
  TRACK 18 AUDIO
    TITLE "0:"
    INDEX 01 00:29:58
  TRACK 19 AUDIO
    TITLE "7:cjc108_1383"
    INDEX 01 00:30:06
  TRACK 20 AUDIO
    TITLE "0:"
    INDEX 01 00:35:15
  TRACK 21 AUDIO
    TITLE "5:cjc108_1384"
    INDEX 01 00:35:74
  TRACK 22 AUDIO
    TITLE "0:"
    INDEX 01 00:37:10
  TRACK 23 AUDIO
    TITLE "6:cjc108_1385"
    INDEX 01 00:37:30
  TRACK 24 AUDIO
    TITLE "0:"
    INDEX 01 00:38:71
  TRACK 25 AUDIO
    TITLE "7:cjc108_1386"
    INDEX 01 00:39:29
  TRACK 26 AUDIO
    TITLE "0:"
    INDEX 01 00:44:26
  TRACK 27 AUDIO
    TITLE "5:cjc108_1387"
    INDEX 01 00:45:16
  TRACK 28 AUDIO
    TITLE "0:"
    INDEX 01 00:46:33
  TRACK 29 AUDIO
    TITLE "6:cjc108_1388"
    INDEX 01 00:46:54
  TRACK 30 AUDIO
    TITLE "0:"
    INDEX 01 00:49:37
  TRACK 31 AUDIO
    TITLE "7:cjc108_1389"
    INDEX 01 00:49:53
  TRACK 32 AUDIO
    TITLE "0:"
    INDEX 01 00:55:24
  TRACK 33 AUDIO
    TITLE "5:cjc108_1390"
    INDEX 01 00:56:12
  TRACK 34 AUDIO
    TITLE "0:"
    INDEX 01 00:57:35
  TRACK 35 AUDIO
    TITLE "6:cjc108_1391"
    INDEX 01 00:57:46
  TRACK 36 AUDIO
    TITLE "0:"
    INDEX 01 01:00:21
  TRACK 37 AUDIO
    TITLE "7:cjc108_1392"
    INDEX 01 01:00:51
  TRACK 38 AUDIO
    TITLE "0:"
    INDEX 01 01:05:50
  TRACK 39 AUDIO
    TITLE "5:cjc108_1393"
    INDEX 01 01:06:47
  TRACK 40 AUDIO
    TITLE "0:"
    INDEX 01 01:07:63
  TRACK 41 AUDIO
    TITLE "6:cjc108_1394"
    INDEX 01 01:08:11
  TRACK 42 AUDIO
    TITLE "0:"
    INDEX 01 01:10:71
  TRACK 43 AUDIO
    TITLE "7:cjc108_1395"
    INDEX 01 01:11:17
  TRACK 44 AUDIO
    TITLE "0:"
    INDEX 01 01:18:17
  TRACK 45 AUDIO
    TITLE "5:cjc108_1396"
    INDEX 01 01:19:13
  TRACK 46 AUDIO
    TITLE "0:"
    INDEX 01 01:20:16
  TRACK 47 AUDIO
    TITLE "6:cjc108_1397"
    INDEX 01 01:20:30
  TRACK 48 AUDIO
    TITLE "0:"
    INDEX 01 01:22:60
  TRACK 49 AUDIO
    TITLE "7:cjc108_1398"
    INDEX 01 01:23:03
  TRACK 50 AUDIO
    TITLE "0:"
    INDEX 01 01:26:38
  TRACK 51 AUDIO
    TITLE "5:cjc108_1399"
    INDEX 01 01:27:20
  TRACK 52 AUDIO
    TITLE "0:"
    INDEX 01 01:28:45
  TRACK 53 AUDIO
    TITLE "6:cjc108_1400"
    INDEX 01 01:28:72
  TRACK 54 AUDIO
    TITLE "0:"
    INDEX 01 01:31:16
  TRACK 55 AUDIO
    TITLE "7:cjc108_1401"
    INDEX 01 01:31:38
  TRACK 56 AUDIO
    TITLE "0:"
    INDEX 01 01:36:72
  TRACK 57 AUDIO
    TITLE "5:cjc108_1402"
    INDEX 01 01:37:60
  TRACK 58 AUDIO
    TITLE "0:"
    INDEX 01 01:39:00
  TRACK 59 AUDIO
    TITLE "6:cjc108_1403"
    INDEX 01 01:39:02
  TRACK 60 AUDIO
    TITLE "0:"
    INDEX 01 01:41:14
  TRACK 61 AUDIO
    TITLE "7:cjc108_1404"
    INDEX 01 01:41:34
  TRACK 62 AUDIO
    TITLE "0:"
    INDEX 01 01:47:58
  TRACK 63 AUDIO
    TITLE "5:cjc108_1405"
    INDEX 01 01:48:50
  TRACK 64 AUDIO
    TITLE "0:"
    INDEX 01 01:49:69
  TRACK 65 AUDIO
    TITLE "6:cjc108_1406"
    INDEX 01 01:50:11
  TRACK 66 AUDIO
    TITLE "0:"
    INDEX 01 01:51:38
  TRACK 67 AUDIO
    TITLE "7:cjc108_1407"
    INDEX 01 01:51:62
  TRACK 68 AUDIO
    TITLE "0:"
    INDEX 01 01:57:21
